<svg width="640" height="640" viewBox="0 0 32 32" fill="none" xmlns="http://www.w3.org/2000/svg">
  <rect width="32" height="32" rx="4" fill="#00158F"/>
  <rect x="2" y="24" width="28" height="6" fill="#050505" opacity="0.5"/>
  <rect x="8" y="10" width="16" height="10" fill="#F0F0F0" stroke="#050505" stroke-width="0.5"/>
  <rect x="8" y="8" width="16" height="2" fill="#FFD500"/>
  <rect x="14" y="6" width="4" height="2" fill="#FFD500"/>
  <rect x="15" y="2" width="2" height="4" fill="#FFD500"/>
  <rect x="10" y="14" width="2" height="2" fill="#050505"/>
  <rect x="20" y="14" width="2" height="2" fill="#050505"/>
  <rect x="13" y="18" width="6" height="2" fill="#050505"/>
  <rect x="11" y="20" width="10" height="2" fill="#00158F"/>
  <rect x="11" y="22" width="10" height="2" fill="#FFD500"/>
  <rect x="12" y="24" width="8" height="4" fill="#F0F0F0" stroke="#050505" stroke-width="0.5"/>
  <rect x="12" y="28" width="3" height="2" fill="#050505"/>
  <rect x="17" y="28" width="3" height="2" fill="#050505"/>
  <rect x="6" y="20" width="4" height="4" fill="#FFD500" stroke="#050505" stroke-width="0.5"/>
  <rect x="22" y="20" width="4" height="4" fill="#FFD500" stroke="#050505" stroke-width="0.5"/>
  <rect x="6" y="12" width="2" height="6" fill="#00158F"/>
  <rect x="24" y="12" width="2" height="6" fill="#00158F"/>
  <rect x="7" y="4" width="18" height="2" fill="#050505" opacity="0.4"/>
  <rect x="4" y="6" width="4" height="6" fill="#FFD500" opacity="0.9"/>
  <rect x="24" y="6" width="4" height="6" fill="#FFD500" opacity="0.9"/>
  <rect x="10" y="24" width="2" height="2" fill="#00158F"/>
  <rect x="20" y="24" width="2" height="2" fill="#00158F"/>
  <rect x="14" y="12" width="4" height="2" fill="#050505" opacity="0.5"/>
  <rect x="13" y="8" width="6" height="2" fill="#00158F" opacity="0.4"/>
</svg>
