<?xml version="1.0" encoding="UTF-8"?>
<svg id="Layer_2" data-name="Layer 2" xmlns="http://www.w3.org/2000/svg" viewBox="0 0 378.16 538.49">
  <defs>
    <style>
      .cls-1 {
        fill: #231f20;
      }
    </style>
  </defs>
  <g id="Layer_1-2" data-name="Layer 1">
    <g>
      <rect class="cls-1" x="162.07" y="376.42" width="54.02" height="54.02"/>
      <rect class="cls-1" x="162.07" y="322.4" width="54.02" height="54.02"/>
      <rect class="cls-1" x="216.09" y="376.42" width="54.02" height="54.02"/>
      <rect class="cls-1" x="216.09" y="322.4" width="54.02" height="54.02"/>
      <rect class="cls-1" x="162.07" y="430.45" width="54.02" height="54.02"/>
      <rect class="cls-1" x="108.05" y="268.38" width="54.02" height="54.02"/>
      <rect class="cls-1" x="270.12" y="322.4" width="54.02" height="54.02"/>
      <rect class="cls-1" x="162.07" y="268.38" width="54.02" height="54.02"/>
      <rect class="cls-1" x="216.09" y="268.38" width="54.02" height="54.02"/>
      <rect class="cls-1" x="270.12" y="268.38" width="54.02" height="54.02"/>
      <rect class="cls-1" x="108.05" y="215.16" width="54.02" height="54.02"/>
      <rect class="cls-1" x="162.07" y="215.16" width="54.02" height="54.02"/>
      <rect class="cls-1" x="216.09" y="215.16" width="54.02" height="54.02"/>
      <rect class="cls-1" x="270.12" y="215.16" width="54.02" height="54.02"/>
      <rect class="cls-1" x="108.05" y="161.94" width="54.02" height="54.02"/>
      <rect class="cls-1" x="162.07" y="161.94" width="54.02" height="54.02"/>
      <rect class="cls-1" x="216.09" y="161.94" width="54.02" height="54.02"/>
      <rect class="cls-1" x="54.02" y="108.11" width="54.02" height="54.02"/>
      <rect class="cls-1" x="0" y="54.08" width="54.02" height="54.02"/>
      <rect class="cls-1" x="162.07" y="484.47" width="54.02" height="54.02"/>
      <rect class="cls-1" x="324.14" y="268.38" width="54.02" height="54.02"/>
      <rect class="cls-1" width="54.02" height="54.02"/>
      <rect class="cls-1" x="162.07" width="54.02" height="54.02"/>
    </g>
  </g>
</svg>